<svg xmlns="http://www.w3.org/2000/svg" viewBox="0 0 266.95 185.03" role="img" aria-label="Newman isotype">
  <defs><linearGradient id="g" x1="65" y1="98" x2="221" y2="-7" gradientUnits="userSpaceOnUse"><stop offset=".15" stop-color="#191b4d"/><stop offset="1" stop-color="#b80e65"/></linearGradient></defs>
  <g fill="url(#g)">
    <polygon points="2.47 3.06 0 0 85.76 0 86.47 1.3 168.41 152.36 147.28 185.03 2.47 3.06"/>
    <polygon points="95.54 3.04 93.17 0 151.49 0 152.2 1.33 204.39 96.74 188.98 120.56 95.54 3.04"/>
    <polygon points="161.87 3.07 159.39 0 197.72 0 198.42 1.33 229.39 58.08 218.74 74.54 161.87 3.07"/>
    <polygon points="205.52 0 228.73 0 246.42 31.75 239.32 42.72 205.52 0"/>
    <polygon points="236.11 0 266.95 0 253.06 21.48 236.11 0"/>
  </g>
</svg>
