<svg xmlns="http://www.w3.org/2000/svg" viewBox="0 0 1865.2 185.03" role="img" aria-label="Newman">
  <defs><linearGradient id="g" x1="65.13" y1="98.26" x2="220.81" y2="-6.74" gradientUnits="userSpaceOnUse"><stop offset=".15" stop-color="#191b4d"/><stop offset="1" stop-color="#b80e65"/></linearGradient></defs>
  <g fill="#191B4D">
    <path d="M329.74,6.8h41.71l111.77,119.15V6.8h38.95v165.93h-42.87l-110.39-119.15v119.15h-39.18V6.8Z"/>
    <path d="M607.21,37.45v36.41h113.62v28.12h-113.62v40.1h119.38v30.65h-161.32V6.8h161.32v30.65h-119.38Z"/>
    <path d="M1057.29,6.8l-64.3,165.93h-49.09l-38.03-111.77-2.77-8.99-2.54,8.99-38.03,111.77h-49.09L749.16,6.8h43.56l45.63,133.44,44.25-129.06h41.25l41.25,120.07,3,8.99,3.22-9.22,42.41-124.22h43.56Z"/>
    <path d="M1086.78,6.8h52.08l57.85,99.1,4.15,6.68,61.76-105.78h51.86v165.93h-37.57V47.13l-5.07,8.76-54.62,90.8h-32.96l-59.69-99.56v125.6h-37.79V6.8Z"/>
    <path d="M1489.85,136.78h-91.49l-16.36,35.95h-42.87L1419.79,6.8h48.17l80.89,165.93h-42.63l-16.36-35.95ZM1476.72,107.97l-32.5-71.44-32.73,71.44h65.22Z"/>
    <path d="M1573.27,6.8h41.71l111.77,119.15V6.8h38.95v165.93h-42.87l-110.39-119.15v119.15h-39.18V6.8Z"/>
  </g>
  <g fill="url(#g)">
    <polygon points="2.47 3.06 0 0 85.76 0 86.47 1.3 168.41 152.36 147.28 185.03 2.47 3.06"/>
    <polygon points="95.54 3.04 93.17 0 151.49 0 152.2 1.33 204.39 96.74 188.98 120.56 95.54 3.04"/>
    <polygon points="161.87 3.07 159.39 0 197.72 0 198.42 1.33 229.39 58.08 218.74 74.54 161.87 3.07"/>
    <polygon points="205.52 0 228.73 0 246.42 31.75 239.32 42.72 205.52 0"/>
    <polygon points="236.11 0 266.95 0 253.06 21.48 236.11 0"/>
  </g>
</svg>
